<svg xmlns="http://www.w3.org/2000/svg" viewBox="0 0 24 24" height="24" width="24" id="Hierarchy-5--Streamline-Streamline--3.0.svg"><desc>Hierarchy 5 Streamline Icon: https://streamlinehq.com</desc><path d="M24 19.5a1.5 1.5 0 0 0 -1.5 -1.5h-0.75a0.25 0.25 0 0 1 -0.25 -0.25V12.5a2 2 0 0 0 -2 -2h-6.25a0.25 0.25 0 0 1 -0.25 -0.25v-5a0.25 0.25 0 0 1 0.25 -0.25h5.25A1.5 1.5 0 0 0 20 3.5v-2A1.5 1.5 0 0 0 18.5 0h-13A1.5 1.5 0 0 0 4 1.5v2A1.5 1.5 0 0 0 5.5 5h5.25a0.25 0.25 0 0 1 0.25 0.25v5a0.25 0.25 0 0 1 -0.25 0.25H4.5a2 2 0 0 0 -2 2v5.25a0.25 0.25 0 0 1 -0.25 0.25H1.5A1.5 1.5 0 0 0 0 19.5v3A1.5 1.5 0 0 0 1.5 24h3A1.5 1.5 0 0 0 6 22.5v-3A1.51 1.51 0 0 0 4.71 18a0.24 0.24 0 0 1 -0.21 -0.24v-5a0.25 0.25 0 0 1 0.25 -0.25h6a0.25 0.25 0 0 1 0.25 0.25v5a0.25 0.25 0 0 1 -0.25 0.25h-0.25A1.5 1.5 0 0 0 9 19.5v3a1.5 1.5 0 0 0 1.5 1.5h3a1.5 1.5 0 0 0 1.5 -1.5v-3a1.5 1.5 0 0 0 -1.5 -1.5h-0.25a0.25 0.25 0 0 1 -0.25 -0.25v-5a0.25 0.25 0 0 1 0.25 -0.25h6a0.25 0.25 0 0 1 0.25 0.25v5a0.24 0.24 0 0 1 -0.21 0.24A1.51 1.51 0 0 0 18 19.5v3a1.5 1.5 0 0 0 1.5 1.5h3a1.5 1.5 0 0 0 1.5 -1.5Z" fill="#000000" stroke-width="1"></path></svg>