<svg xmlns="http://www.w3.org/2000/svg" viewBox="0 0 24 24" height="24" width="24" id="Location-User--Streamline-Streamline--3.0.svg"><desc>Location User Streamline Icon: https://streamlinehq.com</desc><g id="Location-User--Streamline-Streamline--3.0.svg"><path d="M16.1 14.25a0.25 0.25 0 0 0 -0.19 0.05 0.23 0.23 0 0 0 -0.1 0.17l-0.23 2.23a0.25 0.25 0 0 0 0.21 0.27c2.31 0.38 3.86 1.1 3.86 1.93 0 1.23 -3.42 2.23 -7.65 2.23s-7.65 -1 -7.65 -2.23c0 -0.83 1.55 -1.55 3.86 -1.93a0.25 0.25 0 0 0 0.21 -0.27l-0.23 -2.23a0.23 0.23 0 0 0 -0.1 -0.17 0.25 0.25 0 0 0 -0.19 -0.05c-4.29 0.61 -7.9 2.2 -7.9 4.65 0 3.21 6.18 5 12 5s12 -1.74 12 -5c0 -2.45 -3.61 -4.04 -7.9 -4.65Z" fill="#000000" stroke-width="1"></path><path d="M9.25 2.9a2.75 2.75 0 1 0 5.5 0 2.75 2.75 0 1 0 -5.5 0" fill="#000000" stroke-width="1"></path><path d="M9 13.15h0.77a0.25 0.25 0 0 1 0.25 0.23l0.44 5.31a0.5 0.5 0 0 0 0.5 0.46H13a0.5 0.5 0 0 0 0.5 -0.46l0.5 -5.31a0.25 0.25 0 0 1 0.25 -0.23H15a0.5 0.5 0 0 0 0.5 -0.5v-2.5a3.5 3.5 0 1 0 -7 0v2.5a0.5 0.5 0 0 0 0.5 0.5Z" fill="#000000" stroke-width="1"></path></g></svg>