<svg width="20" height="20" viewBox="0 0 20 20" fill="none" xmlns="http://www.w3.org/2000/svg">
<path d="M2.69564 15.1507C2.92795 17.2002 4.66114 18.7982 6.72251 18.8714C7.76816 18.9085 8.84187 18.9277 9.99906 18.9277C11.1563 18.9277 12.23 18.9085 13.2756 18.8714C15.3369 18.7982 17.0702 17.2002 17.3025 15.1507C17.3835 14.4364 17.4395 13.7105 17.4395 12.9753C17.4395 12.2401 17.3835 11.5143 17.3025 10.7999C17.0702 8.75039 15.3369 7.15238 13.2756 7.07922C12.23 7.04212 11.1563 7.02295 9.99906 7.02295C8.84187 7.02295 7.76816 7.04212 6.72251 7.07922C4.66114 7.15238 2.92795 8.75039 2.69564 10.7999C2.61467 11.5143 2.55859 12.2401 2.55859 12.9753C2.55859 13.7105 2.61467 14.4364 2.69564 15.1507Z" stroke="#535659" stroke-width="2"/>
<path d="M14.1673 7.02392V5.2382C14.1673 4.13313 13.7283 3.07332 12.9469 2.29192C12.1655 1.51052 11.1057 1.07153 10.0007 1.07153C8.89558 1.07153 7.83578 1.51052 7.05437 2.29192C6.27297 3.07332 5.83398 4.13313 5.83398 5.2382V7.02392" stroke="#535659" stroke-width="2"/>
<path d="M10 12.1418V15.237" stroke="#535659" stroke-width="2"/>
</svg>
